<mxfile host="app.diagrams.net" modified="2023-06-29T08:54:47.356Z" agent="Mozilla/5.0 (Macintosh; Intel Mac OS X 10_15_7) AppleWebKit/537.36 (KHTML, like Gecko) Chrome/114.0.0.0 Safari/537.36" etag="K3q6zQyHSstBWPh56Bq0" version="21.4.0" type="onedrive">
  <diagram name="Page-1" id="QvfOhT6iQcL5AtVfLE54">
    <mxGraphModel dx="1115" dy="619" grid="1" gridSize="10" guides="1" tooltips="1" connect="1" arrows="1" fold="1" page="1" pageScale="1" pageWidth="1169" pageHeight="827" math="0" shadow="0">
      <root>
        <mxCell id="0" />
        <mxCell id="1" parent="0" />
        <mxCell id="lNd9x1o3ssDQN29gm5Em-9" value="Yes" style="edgeStyle=orthogonalEdgeStyle;rounded=0;orthogonalLoop=1;jettySize=auto;html=1;" edge="1" parent="1" source="lNd9x1o3ssDQN29gm5Em-1" target="lNd9x1o3ssDQN29gm5Em-5">
          <mxGeometry relative="1" as="geometry" />
        </mxCell>
        <mxCell id="lNd9x1o3ssDQN29gm5Em-11" style="edgeStyle=orthogonalEdgeStyle;rounded=0;orthogonalLoop=1;jettySize=auto;html=1;entryX=0.75;entryY=0;entryDx=0;entryDy=0;" edge="1" parent="1" source="lNd9x1o3ssDQN29gm5Em-1" target="lNd9x1o3ssDQN29gm5Em-2">
          <mxGeometry relative="1" as="geometry">
            <mxPoint x="320" y="300" as="targetPoint" />
            <Array as="points">
              <mxPoint x="360" y="140" />
              <mxPoint x="360" y="290" />
              <mxPoint x="310" y="290" />
            </Array>
          </mxGeometry>
        </mxCell>
        <mxCell id="lNd9x1o3ssDQN29gm5Em-12" value="No" style="edgeLabel;html=1;align=center;verticalAlign=middle;resizable=0;points=[];" vertex="1" connectable="0" parent="lNd9x1o3ssDQN29gm5Em-11">
          <mxGeometry x="-0.1055" y="2" relative="1" as="geometry">
            <mxPoint as="offset" />
          </mxGeometry>
        </mxCell>
        <mxCell id="lNd9x1o3ssDQN29gm5Em-1" value="Are &lt;i&gt;utm_medium&lt;/i&gt; and &lt;i&gt;utm_source&lt;/i&gt; query params set?" style="rounded=0;whiteSpace=wrap;html=1;" vertex="1" parent="1">
          <mxGeometry x="220" y="100" width="120" height="60" as="geometry" />
        </mxCell>
        <mxCell id="lNd9x1o3ssDQN29gm5Em-14" value="Yes" style="edgeStyle=orthogonalEdgeStyle;rounded=0;orthogonalLoop=1;jettySize=auto;html=1;" edge="1" parent="1" source="lNd9x1o3ssDQN29gm5Em-2" target="lNd9x1o3ssDQN29gm5Em-13">
          <mxGeometry relative="1" as="geometry" />
        </mxCell>
        <mxCell id="lNd9x1o3ssDQN29gm5Em-19" value="No" style="edgeStyle=orthogonalEdgeStyle;rounded=0;orthogonalLoop=1;jettySize=auto;html=1;entryX=0.75;entryY=0;entryDx=0;entryDy=0;" edge="1" parent="1" source="lNd9x1o3ssDQN29gm5Em-2" target="lNd9x1o3ssDQN29gm5Em-15">
          <mxGeometry relative="1" as="geometry">
            <Array as="points">
              <mxPoint x="360" y="340" />
              <mxPoint x="360" y="490" />
              <mxPoint x="310" y="490" />
            </Array>
          </mxGeometry>
        </mxCell>
        <mxCell id="lNd9x1o3ssDQN29gm5Em-2" value="Is &lt;b&gt;traffic-source&lt;/b&gt; query param set and valid" style="rounded=0;whiteSpace=wrap;html=1;" vertex="1" parent="1">
          <mxGeometry x="220" y="310" width="120" height="60" as="geometry" />
        </mxCell>
        <mxCell id="lNd9x1o3ssDQN29gm5Em-10" value="" style="edgeStyle=orthogonalEdgeStyle;rounded=0;orthogonalLoop=1;jettySize=auto;html=1;" edge="1" parent="1" source="lNd9x1o3ssDQN29gm5Em-5" target="lNd9x1o3ssDQN29gm5Em-2">
          <mxGeometry relative="1" as="geometry" />
        </mxCell>
        <mxCell id="lNd9x1o3ssDQN29gm5Em-5" value="Set &lt;b&gt;platform &lt;/b&gt;(&lt;i style=&quot;&quot;&gt;utm_medium)&lt;/i&gt;&amp;nbsp;and &lt;b&gt;source &lt;/b&gt;(utm_source)" style="rounded=0;whiteSpace=wrap;html=1;" vertex="1" parent="1">
          <mxGeometry x="220" y="210" width="120" height="60" as="geometry" />
        </mxCell>
        <mxCell id="lNd9x1o3ssDQN29gm5Em-16" value="" style="edgeStyle=orthogonalEdgeStyle;rounded=0;orthogonalLoop=1;jettySize=auto;html=1;" edge="1" parent="1" source="lNd9x1o3ssDQN29gm5Em-13" target="lNd9x1o3ssDQN29gm5Em-15">
          <mxGeometry relative="1" as="geometry" />
        </mxCell>
        <mxCell id="lNd9x1o3ssDQN29gm5Em-13" value="Set &lt;b&gt;source&lt;/b&gt;, &lt;b&gt;platform&lt;/b&gt; and &lt;b&gt;timestamp&lt;/b&gt; values from traffic-source" style="rounded=0;whiteSpace=wrap;html=1;" vertex="1" parent="1">
          <mxGeometry x="220" y="413.5" width="120" height="60" as="geometry" />
        </mxCell>
        <mxCell id="lNd9x1o3ssDQN29gm5Em-18" value="" style="edgeStyle=orthogonalEdgeStyle;rounded=0;orthogonalLoop=1;jettySize=auto;html=1;" edge="1" parent="1" source="lNd9x1o3ssDQN29gm5Em-15" target="lNd9x1o3ssDQN29gm5Em-17">
          <mxGeometry relative="1" as="geometry" />
        </mxCell>
        <mxCell id="lNd9x1o3ssDQN29gm5Em-15" value="Set &lt;b&gt;source&lt;/b&gt; based on document.referrer value" style="rounded=0;whiteSpace=wrap;html=1;" vertex="1" parent="1">
          <mxGeometry x="220" y="510" width="120" height="60" as="geometry" />
        </mxCell>
        <mxCell id="lNd9x1o3ssDQN29gm5Em-21" style="edgeStyle=orthogonalEdgeStyle;rounded=0;orthogonalLoop=1;jettySize=auto;html=1;exitX=0.5;exitY=1;exitDx=0;exitDy=0;entryX=0.5;entryY=0;entryDx=0;entryDy=0;" edge="1" parent="1" source="lNd9x1o3ssDQN29gm5Em-17" target="lNd9x1o3ssDQN29gm5Em-20">
          <mxGeometry relative="1" as="geometry" />
        </mxCell>
        <mxCell id="lNd9x1o3ssDQN29gm5Em-17" value="Set &lt;b&gt;platform&lt;/b&gt; based on &lt;i&gt;document.referrer&lt;/i&gt; value" style="rounded=0;whiteSpace=wrap;html=1;" vertex="1" parent="1">
          <mxGeometry x="220" y="610" width="120" height="60" as="geometry" />
        </mxCell>
        <mxCell id="lNd9x1o3ssDQN29gm5Em-23" style="edgeStyle=orthogonalEdgeStyle;rounded=0;orthogonalLoop=1;jettySize=auto;html=1;exitX=0.5;exitY=1;exitDx=0;exitDy=0;entryX=0.5;entryY=0;entryDx=0;entryDy=0;" edge="1" parent="1" source="lNd9x1o3ssDQN29gm5Em-20" target="lNd9x1o3ssDQN29gm5Em-22">
          <mxGeometry relative="1" as="geometry" />
        </mxCell>
        <mxCell id="lNd9x1o3ssDQN29gm5Em-24" value="No" style="edgeLabel;html=1;align=center;verticalAlign=middle;resizable=0;points=[];" vertex="1" connectable="0" parent="lNd9x1o3ssDQN29gm5Em-23">
          <mxGeometry x="-0.0664" y="-1" relative="1" as="geometry">
            <mxPoint as="offset" />
          </mxGeometry>
        </mxCell>
        <mxCell id="lNd9x1o3ssDQN29gm5Em-26" style="edgeStyle=orthogonalEdgeStyle;rounded=0;orthogonalLoop=1;jettySize=auto;html=1;entryX=0.75;entryY=0;entryDx=0;entryDy=0;" edge="1" parent="1" source="lNd9x1o3ssDQN29gm5Em-20" target="lNd9x1o3ssDQN29gm5Em-25">
          <mxGeometry relative="1" as="geometry">
            <Array as="points">
              <mxPoint x="620" y="170" />
              <mxPoint x="620" y="310" />
              <mxPoint x="555" y="310" />
            </Array>
          </mxGeometry>
        </mxCell>
        <mxCell id="lNd9x1o3ssDQN29gm5Em-27" value="Yes" style="edgeLabel;html=1;align=center;verticalAlign=middle;resizable=0;points=[];" vertex="1" connectable="0" parent="lNd9x1o3ssDQN29gm5Em-26">
          <mxGeometry x="-0.2376" relative="1" as="geometry">
            <mxPoint as="offset" />
          </mxGeometry>
        </mxCell>
        <mxCell id="lNd9x1o3ssDQN29gm5Em-20" value="Is &lt;i&gt;document.referrer&lt;/i&gt; skrill in-page traffic" style="rounded=0;whiteSpace=wrap;html=1;" vertex="1" parent="1">
          <mxGeometry x="465" y="130" width="120" height="60" as="geometry" />
        </mxCell>
        <mxCell id="lNd9x1o3ssDQN29gm5Em-28" value="" style="edgeStyle=orthogonalEdgeStyle;rounded=0;orthogonalLoop=1;jettySize=auto;html=1;" edge="1" parent="1" source="lNd9x1o3ssDQN29gm5Em-22" target="lNd9x1o3ssDQN29gm5Em-25">
          <mxGeometry relative="1" as="geometry" />
        </mxCell>
        <mxCell id="lNd9x1o3ssDQN29gm5Em-22" value="Save &lt;b&gt;traffic-source &lt;/b&gt;object to localStorage" style="rounded=0;whiteSpace=wrap;html=1;" vertex="1" parent="1">
          <mxGeometry x="465" y="230" width="120" height="60" as="geometry" />
        </mxCell>
        <mxCell id="lNd9x1o3ssDQN29gm5Em-30" value="" style="edgeStyle=orthogonalEdgeStyle;rounded=0;orthogonalLoop=1;jettySize=auto;html=1;" edge="1" parent="1" source="lNd9x1o3ssDQN29gm5Em-25" target="lNd9x1o3ssDQN29gm5Em-29">
          <mxGeometry relative="1" as="geometry" />
        </mxCell>
        <mxCell id="lNd9x1o3ssDQN29gm5Em-25" value="Is current page public Skrill page (not in-account)" style="rounded=0;whiteSpace=wrap;html=1;" vertex="1" parent="1">
          <mxGeometry x="465" y="340" width="120" height="60" as="geometry" />
        </mxCell>
        <mxCell id="lNd9x1o3ssDQN29gm5Em-32" value="" style="edgeStyle=orthogonalEdgeStyle;rounded=0;orthogonalLoop=1;jettySize=auto;html=1;" edge="1" parent="1" source="lNd9x1o3ssDQN29gm5Em-29" target="lNd9x1o3ssDQN29gm5Em-31">
          <mxGeometry relative="1" as="geometry" />
        </mxCell>
        <mxCell id="lNd9x1o3ssDQN29gm5Em-33" value="Yes" style="edgeLabel;html=1;align=center;verticalAlign=middle;resizable=0;points=[];" vertex="1" connectable="0" parent="lNd9x1o3ssDQN29gm5Em-32">
          <mxGeometry x="-0.0869" relative="1" as="geometry">
            <mxPoint as="offset" />
          </mxGeometry>
        </mxCell>
        <mxCell id="lNd9x1o3ssDQN29gm5Em-29" value="Is current page public Skrill page (not in-account)" style="rounded=0;whiteSpace=wrap;html=1;" vertex="1" parent="1">
          <mxGeometry x="465" y="440" width="120" height="60" as="geometry" />
        </mxCell>
        <mxCell id="lNd9x1o3ssDQN29gm5Em-31" value="Find all links pointing to account subdomain and append &lt;b&gt;traffic-source &lt;/b&gt;data object as query string" style="rounded=0;whiteSpace=wrap;html=1;" vertex="1" parent="1">
          <mxGeometry x="441.25" y="540" width="167.5" height="110" as="geometry" />
        </mxCell>
        <mxCell id="lNd9x1o3ssDQN29gm5Em-34" value="The decision process for assigning platform and source" style="text;html=1;align=center;verticalAlign=middle;resizable=0;points=[];autosize=1;strokeColor=none;fillColor=none;fontStyle=1" vertex="1" parent="1">
          <mxGeometry x="210" y="28" width="340" height="30" as="geometry" />
        </mxCell>
      </root>
    </mxGraphModel>
  </diagram>
</mxfile>
